<?xml version="1.0" encoding="utf-8"?>
<!-- Generator: Adobe Illustrator 19.2.1, SVG Export Plug-In . SVG Version: 6.00 Build 0)  -->
<svg version="1.1" id="Layer_1" xmlns="http://www.w3.org/2000/svg" xmlns:xlink="http://www.w3.org/1999/xlink" x="0px" y="0px"
	 viewBox="0 0 841.9 595.3" style="enable-background:new 0 0 841.9 595.3;" xml:space="preserve">
<style type="text/css">
	.st0{fill:#004764;}
	.st1{fill:#5CC3AF;}
	.st2{fill:#FFFFFF;}
	.st3{font-family:'MyriadPro-Regular';}
	.st4{font-size:12.5px;}
	.st5{font-size:15px;}
</style>
<rect x="256" y="222" class="st0" width="330" height="150"/>
<g>
	<polygon class="st1" points="345.4,273.7 327.1,273.7 336.3,289.5 	"/>
	<polygon class="st1" points="325.3,274.7 316.1,290.5 334.5,290.5 	"/>
	<polygon class="st1" points="334.5,292.6 316.1,292.6 325.3,308.5 	"/>
	<polygon class="st1" points="314.4,293.6 305.1,309.5 323.5,309.5 	"/>
	<polygon class="st1" points="347.2,274.7 338,290.5 356.4,290.5 	"/>
	<polygon class="st1" points="356.4,292.6 338,292.6 347.2,308.5 	"/>
	<polygon class="st1" points="336.3,255.7 327.1,271.6 345.4,271.6 	"/>
	<polygon class="st1" points="323.5,311.5 305.1,311.5 314.4,327.5 	"/>
	<polygon class="st1" points="358.1,293.6 349,309.5 367.3,309.5 	"/>
	<polygon class="st1" points="367.3,311.5 349,311.5 358.1,327.5 	"/>
</g>
<polygon class="st2" points="336.3,293.6 327.1,309.5 345.4,309.5 "/>
<polygon class="st2" points="323.5,273.7 305.1,273.7 314.4,289.5 "/>
<polyline class="st2" points="294.2,290.5 312.6,290.5 303.4,274.7 "/>
<polyline class="st2" points="303.4,308.5 312.6,292.6 294.2,292.6 "/>
<polygon class="st2" points="369.1,274.7 359.9,290.5 378.3,290.5 "/>
<polygon class="st2" points="378.3,292.6 359.9,292.6 369.1,308.5 "/>
<polygon class="st2" points="356.4,254.7 338,254.7 347.2,270.5 "/>
<polygon class="st2" points="345.4,311.5 327,311.5 336.3,327.5 "/>
<polygon class="st2" points="347.2,312.6 338,328.5 356.4,328.5 "/>
<polygon class="st2" points="334.5,254.7 316.1,254.7 325.3,270.5 "/>
<polygon class="st2" points="314.4,255.7 305.1,271.6 323.5,271.6 "/>
<polygon class="st2" points="358.1,255.7 349,271.6 367.3,271.6 "/>
<polygon class="st2" points="367.3,273.7 349,273.7 358.1,289.5 "/>
<polygon class="st2" points="325.3,312.6 316.1,328.5 334.5,328.5 "/>
<g>
	<path class="st2" d="M436.6,312.5c-1.3,0-2.5-0.2-3.6-0.5c-1.1-0.4-2.1-0.9-2.9-1.6c-0.8-0.7-1.5-1.6-1.9-2.7
		c-0.5-1.1-0.7-2.3-0.7-3.6v-17.1h3v17c0,0.9,0.1,1.7,0.5,2.4c0.3,0.7,0.7,1.3,1.3,1.8c0.6,0.5,1.2,0.8,1.9,1.1
		c0.8,0.3,1.6,0.4,2.5,0.4c0.9,0,1.7-0.1,2.5-0.4c0.8-0.2,1.4-0.6,1.9-1.1c0.5-0.5,1-1.1,1.3-1.8c0.3-0.7,0.5-1.5,0.5-2.4v-17h3V304
		c0,1.4-0.2,2.6-0.7,3.6c-0.5,1.1-1.1,1.9-1.9,2.7c-0.8,0.7-1.8,1.2-2.9,1.6C439.1,312.3,437.9,312.5,436.6,312.5z"/>
	<path class="st2" d="M454,312.2v-25.3h6c0.8,0,1.7,0.1,2.7,0.4c1,0.3,1.9,0.7,2.8,1.2c0.9,0.6,1.6,1.3,2.2,2.1
		c0.6,0.9,0.9,1.9,0.9,3.1c0,1.8-0.4,3.3-1.4,4.5c-0.9,1.2-2.2,2-4,2.4l5.4,11.5h-3.3l-5.3-11.3h-0.6H457v11.3H454z M457,298h3.1
		c1.1,0,1.9-0.1,2.6-0.4c0.7-0.3,1.2-0.6,1.6-1c0.4-0.4,0.7-0.9,0.9-1.4c0.2-0.5,0.3-1,0.3-1.5c0-0.5-0.1-1-0.4-1.5
		c-0.3-0.5-0.7-0.9-1.1-1.3c-0.5-0.4-1-0.7-1.7-0.9c-0.7-0.2-1.4-0.3-2.1-0.3H457V298z"/>
	<path class="st2" d="M476.5,299.6c0-1.8,0.3-3.4,1-5c0.7-1.6,1.6-3,2.8-4.1c1.2-1.2,2.5-2.1,4.1-2.8c1.6-0.7,3.2-1,5-1
		c1.8,0,3.4,0.3,5,1c1.6,0.7,3,1.6,4.1,2.8c1.2,1.2,2.1,2.6,2.8,4.1c0.7,1.6,1,3.3,1,5c0,1.8-0.3,3.5-1,5c-0.7,1.6-1.6,2.9-2.8,4.1
		c-1.2,1.2-2.6,2.1-4.1,2.8c-1.6,0.7-3.2,1-5,1c-1.8,0-3.5-0.3-5-1c-1.6-0.7-2.9-1.6-4.1-2.8c-1.2-1.2-2.1-2.5-2.8-4.1
		C476.8,303.1,476.5,301.4,476.5,299.6z M479.5,299.6c0,1.4,0.3,2.7,0.8,3.9c0.5,1.2,1.2,2.3,2.1,3.2c0.9,0.9,2,1.6,3.2,2.1
		c1.2,0.5,2.5,0.8,3.9,0.8c1.4,0,2.7-0.3,3.9-0.8c1.2-0.5,2.3-1.2,3.2-2.1c0.9-0.9,1.6-2,2.1-3.2c0.5-1.2,0.8-2.5,0.8-3.9
		c0-1.4-0.3-2.7-0.8-3.9c-0.5-1.2-1.2-2.3-2.1-3.2c-0.9-0.9-2-1.6-3.2-2.2c-1.2-0.5-2.5-0.8-3.9-0.8c-1.4,0-2.7,0.3-3.9,0.8
		c-1.2,0.5-2.3,1.3-3.2,2.2c-0.9,0.9-1.6,2-2.1,3.2C479.8,296.9,479.5,298.2,479.5,299.6z"/>
	<path class="st2" d="M510.3,312.2v-25.3h6c0.8,0,1.7,0.1,2.7,0.4c1,0.3,1.9,0.7,2.8,1.2c0.9,0.6,1.6,1.3,2.2,2.1
		c0.6,0.9,0.9,1.9,0.9,3.1c0,1.8-0.5,3.3-1.4,4.5c-0.9,1.2-2.2,2-4,2.4l5.4,11.5h-3.3l-5.3-11.3h-0.6h-2.5v11.3H510.3z M513.3,298
		h3.1c1.1,0,1.9-0.1,2.6-0.4c0.7-0.3,1.2-0.6,1.6-1c0.4-0.4,0.7-0.9,0.9-1.4c0.2-0.5,0.3-1,0.3-1.5c0-0.5-0.1-1-0.4-1.5
		c-0.3-0.5-0.6-0.9-1.1-1.3c-0.5-0.4-1-0.7-1.7-0.9c-0.7-0.2-1.4-0.3-2.1-0.3h-3.2V298z"/>
	<g>
		<path class="st2" d="M413.4,299c-1.9-4.4-3.7-8.8-5.6-13.2c-0.5,1.2-1,2.4-1.5,3.6l3.6,8.5l0,0l1.9,4.4h0c0.7,1.7,1.4,3.3,2.1,5
			c0.7,1.7,1.4,3.3,2.1,5h3C417.1,307.8,415.2,303.4,413.4,299z"/>
		<path class="st2" d="M403.8,302.2l1.7-4.1h0c0.3-0.6,0.5-1.1,0.7-1.7l-1.5-3.6c-0.9,2-1.7,4.1-2.6,6.1c-1.8,4.4-3.7,8.8-5.6,13.2
			h3c0.7-1.7,1.4-3.3,2.1-5C402.4,305.5,403.1,303.9,403.8,302.2L403.8,302.2z"/>
	</g>
	<g>
		<path class="st2" d="M549.6,299c-1.9-4.4-3.7-8.8-5.6-13.2c-0.5,1.2-1,2.4-1.5,3.6l3.6,8.5l0,0l1.9,4.4h0c0.7,1.7,1.4,3.3,2.1,5
			c0.7,1.7,1.4,3.3,2.1,5h3C553.3,307.8,551.5,303.4,549.6,299z"/>
		<path class="st2" d="M540,302.2l1.7-4.1h0c0.2-0.6,0.5-1.1,0.7-1.7l-1.5-3.6c-0.9,2-1.7,4.1-2.6,6.1c-1.8,4.4-3.7,8.8-5.6,13.2h3
			c0.7-1.7,1.4-3.3,2.1-5C538.6,305.5,539.3,303.9,540,302.2L540,302.2z"/>
	</g>
</g>
<text transform="matrix(1 0 0 1 552.2891 279.3828)" class="st2 st3 st4">™</text>
<text transform="matrix(1 0 0 1 396.5518 279.3828)" class="st2 st3 st5">Apache</text>
</svg>
