<?xml version="1.0" encoding="utf-8"?>
<!-- Generator: Adobe Illustrator 19.2.1, SVG Export Plug-In . SVG Version: 6.00 Build 0)  -->
<svg version="1.1" id="Layer_1" xmlns="http://www.w3.org/2000/svg" xmlns:xlink="http://www.w3.org/1999/xlink" x="0px" y="0px"
	 viewBox="0 0 841.9 595.3" style="enable-background:new 0 0 841.9 595.3;" xml:space="preserve">
<style type="text/css">
	.st0{fill:#5CC3AF;}
	.st1{fill:#004865;}
	.st2{fill:#004764;}
	.st3{fill:#004664;}
	.st4{font-family:'MyriadPro-Regular';}
	.st5{font-size:12.5px;}
	.st6{font-size:15px;}
</style>
<g>
	<polygon class="st0" points="334.2,279.6 315.9,279.6 325.1,295.4 	"/>
	<polygon class="st0" points="314.1,280.6 304.9,296.4 323.3,296.4 	"/>
	<polygon class="st0" points="323.3,298.5 304.9,298.5 314.1,314.4 	"/>
	<polygon class="st0" points="303.2,299.5 293.9,315.4 312.3,315.4 	"/>
	<polygon class="st0" points="336,280.6 326.8,296.4 345.2,296.4 	"/>
	<polygon class="st0" points="345.2,298.5 326.8,298.5 336,314.4 	"/>
	<polygon class="st0" points="325.1,261.6 315.9,277.5 334.2,277.5 	"/>
	<polygon class="st0" points="312.3,317.4 293.9,317.4 303.2,333.4 	"/>
	<polygon class="st0" points="347,299.5 337.8,315.4 356.1,315.4 	"/>
	<polygon class="st0" points="356.1,317.4 337.8,317.4 347,333.4 	"/>
</g>
<g>
	<polygon class="st1" points="325.1,299.5 315.9,315.4 334.2,315.4 	"/>
	<polygon class="st1" points="312.3,279.6 293.9,279.6 303.2,295.4 	"/>
	<polygon class="st1" points="292.2,280.6 283,296.4 301.4,296.4 	"/>
	<polygon class="st1" points="301.4,298.5 283,298.5 292.2,314.4 	"/>
	<polygon class="st1" points="357.9,280.6 348.8,296.4 367.1,296.4 	"/>
	<polygon class="st1" points="367.1,298.5 348.8,298.5 357.9,314.4 	"/>
	<polygon class="st1" points="345.2,260.6 326.8,260.6 336,276.4 	"/>
	<polygon class="st1" points="334.2,317.4 315.9,317.4 325.1,333.4 	"/>
	<polygon class="st1" points="336,318.5 326.8,334.5 345.2,334.5 	"/>
	<polygon class="st1" points="323.3,260.6 304.9,260.6 314.1,276.4 	"/>
	<polygon class="st1" points="303.2,261.6 293.9,277.5 312.3,277.5 	"/>
	<polygon class="st1" points="347,261.6 337.8,277.5 356.1,277.5 	"/>
	<polygon class="st1" points="356.1,279.6 337.8,279.6 347,295.4 	"/>
	<polygon class="st1" points="314.1,318.5 304.9,334.5 323.3,334.5 	"/>
</g>
<g>
	<path class="st2" d="M426,319c-1.3,0-2.5-0.2-3.6-0.5c-1.1-0.4-2.1-0.9-2.9-1.6c-0.8-0.7-1.5-1.6-1.9-2.7c-0.5-1.1-0.7-2.3-0.7-3.6
		v-17.1h3v17c0,0.9,0.1,1.7,0.5,2.4c0.3,0.7,0.7,1.3,1.3,1.8c0.6,0.5,1.2,0.8,1.9,1.1c0.8,0.3,1.6,0.4,2.5,0.4
		c0.9,0,1.7-0.1,2.5-0.4c0.8-0.3,1.4-0.6,1.9-1.1c0.5-0.5,1-1.1,1.3-1.8c0.3-0.7,0.5-1.5,0.5-2.4v-17h3v17.1c0,1.4-0.2,2.6-0.7,3.6
		c-0.5,1.1-1.1,1.9-1.9,2.7c-0.8,0.7-1.8,1.2-2.9,1.6C428.5,318.8,427.3,319,426,319z"/>
	<path class="st2" d="M443.4,318.7v-25.3h6c0.8,0,1.7,0.1,2.7,0.4c1,0.3,1.9,0.7,2.8,1.2c0.9,0.6,1.6,1.3,2.2,2.1
		c0.6,0.9,0.9,1.9,0.9,3.1c0,1.8-0.4,3.3-1.4,4.5c-0.9,1.2-2.2,2-4,2.4l5.4,11.5h-3.3l-5.3-11.3h-0.6h-2.5v11.3H443.4z M446.4,304.5
		h3.1c1.1,0,1.9-0.1,2.6-0.4c0.7-0.3,1.2-0.6,1.6-1c0.4-0.4,0.7-0.9,0.9-1.4c0.2-0.5,0.3-1,0.3-1.5c0-0.5-0.1-1-0.4-1.5
		c-0.3-0.5-0.7-0.9-1.1-1.3c-0.5-0.4-1-0.7-1.7-0.9c-0.7-0.2-1.4-0.3-2.1-0.3h-3.2V304.5z"/>
	<path class="st2" d="M465.9,306.1c0-1.8,0.3-3.4,1-5c0.7-1.6,1.6-3,2.8-4.1c1.2-1.2,2.5-2.1,4.1-2.8c1.6-0.7,3.2-1,5-1
		c1.8,0,3.4,0.3,5,1c1.6,0.7,3,1.6,4.1,2.8c1.2,1.2,2.1,2.6,2.8,4.1c0.7,1.6,1,3.2,1,5c0,1.8-0.3,3.5-1,5c-0.7,1.6-1.6,2.9-2.8,4.1
		c-1.2,1.2-2.6,2.1-4.1,2.8c-1.6,0.7-3.3,1-5,1c-1.8,0-3.5-0.3-5-1c-1.6-0.7-2.9-1.6-4.1-2.8c-1.2-1.2-2.1-2.5-2.8-4.1
		C466.3,309.6,465.9,307.9,465.9,306.1z M468.9,306.1c0,1.4,0.3,2.7,0.8,3.9c0.5,1.2,1.2,2.3,2.1,3.2c0.9,0.9,2,1.6,3.2,2.1
		c1.2,0.5,2.5,0.8,3.9,0.8c1.4,0,2.7-0.3,3.9-0.8c1.2-0.5,2.3-1.2,3.2-2.1c0.9-0.9,1.6-2,2.1-3.2c0.5-1.2,0.8-2.5,0.8-3.9
		c0-1.4-0.3-2.7-0.8-3.9c-0.5-1.2-1.2-2.3-2.1-3.2c-0.9-0.9-2-1.6-3.2-2.2c-1.2-0.5-2.5-0.8-3.9-0.8c-1.4,0-2.7,0.3-3.9,0.8
		c-1.2,0.5-2.3,1.2-3.2,2.2c-0.9,0.9-1.6,2-2.1,3.2C469.2,303.4,468.9,304.7,468.9,306.1z"/>
	<path class="st2" d="M499.7,318.7v-25.3h6c0.8,0,1.7,0.1,2.7,0.4c1,0.3,1.9,0.7,2.8,1.2c0.9,0.6,1.6,1.3,2.2,2.1
		c0.6,0.9,0.9,1.9,0.9,3.1c0,1.8-0.5,3.3-1.4,4.5c-0.9,1.2-2.2,2-4,2.4l5.4,11.5h-3.3l-5.3-11.3h-0.6h-2.5v11.3H499.7z M502.7,304.5
		h3.1c1.1,0,1.9-0.1,2.6-0.4c0.7-0.3,1.2-0.6,1.6-1c0.4-0.4,0.7-0.9,0.9-1.4c0.2-0.5,0.2-1,0.2-1.5c0-0.5-0.1-1-0.4-1.5
		c-0.3-0.5-0.6-0.9-1.1-1.3c-0.5-0.4-1-0.7-1.7-0.9c-0.7-0.2-1.4-0.3-2.1-0.3h-3.2V304.5z"/>
	<g>
		<path class="st2" d="M402.8,305.5c-1.9-4.4-3.7-8.8-5.6-13.2c-0.5,1.2-1,2.4-1.5,3.6l3.6,8.5l0,0l1.9,4.4h0c0.7,1.7,1.4,3.3,2.1,5
			c0.7,1.7,1.4,3.3,2.1,5h3C406.5,314.3,404.6,309.9,402.8,305.5z"/>
		<path class="st2" d="M393.2,308.7l1.7-4.1h0c0.3-0.6,0.5-1.1,0.7-1.7l-1.5-3.6c-0.9,2-1.7,4.1-2.6,6.1c-1.8,4.4-3.7,8.8-5.6,13.2
			h3c0.7-1.7,1.4-3.3,2.1-5C391.8,312,392.5,310.4,393.2,308.7L393.2,308.7z"/>
	</g>
	<g>
		<path class="st2" d="M539,305.5c-1.9-4.4-3.7-8.8-5.6-13.2c-0.5,1.2-1,2.4-1.5,3.6l3.6,8.5l0,0l1.9,4.4h0c0.7,1.7,1.4,3.3,2.1,5
			c0.7,1.7,1.4,3.3,2.1,5h3C542.7,314.3,540.9,309.9,539,305.5z"/>
		<path class="st2" d="M529.5,308.7l1.7-4.1h0c0.2-0.6,0.5-1.1,0.7-1.7l-1.5-3.6c-0.9,2-1.7,4.1-2.6,6.1c-1.8,4.4-3.7,8.8-5.6,13.2
			h3c0.7-1.7,1.4-3.3,2.1-5C528,312,528.8,310.4,529.5,308.7L529.5,308.7z"/>
	</g>
</g>
<text transform="matrix(1 0 0 1 544.0156 285.3135)" class="st3 st4 st5">™</text>
<text transform="matrix(1 0 0 1 385.9736 285.3135)" class="st3 st4 st6">Apache</text>
</svg>
